RobotoSerifMicroCond-Hairline Italic 08fz.ufo
<glyph name="acute" format="2">
  <advance width="410"/>
  <anchor x="175" y="527" name="_top"/>
  <outline>
    <contour>
      <point x="186" y="805" type="curve" smooth="yes"/>
      <point x="115" y="680" type="line"/>
      <point x="111" y="661" type="line"/>
      <point x="130" y="661" type="line"/>
      <point x="227" y="755" type="line" smooth="yes"/>
      <point x="255" y="785"/>
      <point x="273" y="795"/>
      <point x="273" y="822" type="curve" smooth="yes"/>
      <point x="273" y="839"/>
      <point x="261" y="856"/>
      <point x="239" y="856" type="curve" smooth="yes"/>
      <point x="215" y="856"/>
      <point x="205" y="837"/>
    </contour>
  </outline>
</glyph>
<glyph name="breve_acute.uc" format="2">
  <advance width="415"/>
  <anchor x="204" y="744" name="_top"/>
  <outline>
    <contour>
      <point x="255" y="1083" type="curve" smooth="yes"/>
      <point x="178" y="993" type="line"/>
      <point x="173" y="972" type="line"/>
      <point x="194" y="972" type="line"/>
      <point x="297" y="1041" type="line" smooth="yes"/>
      <point x="328" y="1061"/>
      <point x="347" y="1076"/>
      <point x="347" y="1101" type="curve" smooth="yes"/>
      <point x="347" y="1119"/>
      <point x="336" y="1135"/>
      <point x="315" y="1135" type="curve" smooth="yes"/>
      <point x="292" y="1135"/>
      <point x="278" y="1113"/>
    </contour>
    <component base="breve.uc"/>
  </outline>
</glyph>
<glyph name="breve_grave.uc" format="2">
  <advance width="416"/>
  <anchor x="212" y="744" name="_top"/>
  <outline>
    <contour>
      <point x="208" y="1071" type="curve" smooth="yes"/>
      <point x="269" y="993" type="line"/>
      <point x="265" y="972" type="line"/>
      <point x="245" y="972" type="line"/>
      <point x="149" y="1043" type="line" smooth="yes"/>
      <point x="128" y="1058"/>
      <point x="108" y="1073"/>
      <point x="108" y="1096" type="curve" smooth="yes"/>
      <point x="108" y="1117"/>
      <point x="124" y="1135"/>
      <point x="145" y="1135" type="curve" smooth="yes"/>
      <point x="170" y="1135"/>
      <point x="185" y="1108"/>
    </contour>
    <component base="breve.uc"/>
  </outline>
</glyph>
<glyph name="breve_tilde" format="2">
  <advance width="410"/>
  <anchor x="200" y="524" name="_top"/>
  <outline>
    <contour>
      <point x="276" y="878" type="curve" smooth="yes"/>
      <point x="314" y="878"/>
      <point x="335" y="898"/>
      <point x="365" y="1015" type="curve"/>
      <point x="334" y="1023" type="line"/>
      <point x="314" y="954"/>
      <point x="305" y="922"/>
      <point x="279" y="922" type="curve" smooth="yes"/>
      <point x="238" y="922"/>
      <point x="248" y="1018"/>
      <point x="182" y="1018" type="curve" smooth="yes"/>
      <point x="145" y="1018"/>
      <point x="117" y="990"/>
      <point x="90" y="885" type="curve"/>
      <point x="121" y="877" type="line"/>
      <point x="141" y="942"/>
      <point x="152" y="973"/>
      <point x="176" y="973" type="curve" smooth="yes"/>
      <point x="215" y="973"/>
      <point x="207" y="878"/>
    </contour>
    <contour>
      <point x="203" y="674" type="curve" smooth="yes"/>
      <point x="284" y="674"/>
      <point x="319" y="720"/>
      <point x="332" y="826" type="curve"/>
      <point x="299" y="826" type="line"/>
      <point x="282" y="746"/>
      <point x="267" y="726"/>
      <point x="205" y="726" type="curve" smooth="yes"/>
      <point x="130" y="726"/>
      <point x="124" y="753"/>
      <point x="126" y="826" type="curve"/>
      <point x="93" y="826" type="line"/>
      <point x="90" y="805"/>
      <point x="89" y="791"/>
      <point x="89" y="778" type="curve" smooth="yes"/>
      <point x="89" y="714"/>
      <point x="115" y="674"/>
    </contour>
  </outline>
</glyph>
<glyph name="breve_tilde.uc" format="2">
  <advance width="410"/>
  <anchor x="231" y="694" name="_top"/>
  <outline>
    <contour>
      <point x="184" y="1093" type="curve" smooth="yes"/>
      <point x="223" y="1093"/>
      <point x="221" y="999"/>
      <point x="288" y="999" type="curve" smooth="yes"/>
      <point x="328" y="999"/>
      <point x="355" y="1033"/>
      <point x="384" y="1134" type="curve"/>
      <point x="350" y="1148" type="line"/>
      <point x="332" y="1091"/>
      <point x="317" y="1049"/>
      <point x="293" y="1049" type="curve" smooth="yes"/>
      <point x="257" y="1049"/>
      <point x="257" y="1143"/>
      <point x="191" y="1143" type="curve" smooth="yes"/>
      <point x="146" y="1143"/>
      <point x="123" y="1110"/>
      <point x="94" y="1012" type="curve"/>
      <point x="128" y="998" type="line"/>
      <point x="148" y="1063"/>
      <point x="162" y="1093"/>
    </contour>
    <contour>
      <point x="205" y="795" type="curve" smooth="yes"/>
      <point x="116" y="795"/>
      <point x="84" y="832"/>
      <point x="84" y="897" type="curve" smooth="yes"/>
      <point x="84" y="912"/>
      <point x="85" y="926"/>
      <point x="88" y="947" type="curve"/>
      <point x="124" y="947" type="line"/>
      <point x="120" y="874"/>
      <point x="131" y="850"/>
      <point x="209" y="850" type="curve" smooth="yes"/>
      <point x="273" y="850"/>
      <point x="293" y="863"/>
      <point x="308" y="947" type="curve"/>
      <point x="344" y="947" type="line"/>
      <point x="332" y="841"/>
      <point x="293" y="795"/>
    </contour>
  </outline>
</glyph>
<glyph name="cedilla" format="2">
  <advance width="410"/>
  <anchor x="203" y="34" name="_bottom"/>
  <outline>
    <contour>
      <point x="208" y="-288" type="curve" smooth="yes"/>
      <point x="277" y="-288"/>
      <point x="318" y="-240"/>
      <point x="318" y="-180" type="curve" smooth="yes"/>
      <point x="318" y="-124"/>
      <point x="285" y="-85"/>
      <point x="202" y="-85" type="curve"/>
      <point x="201" y="-94" type="line"/>
      <point x="276" y="5" type="line"/>
      <point x="219" y="5" type="line"/>
      <point x="164" y="-121" type="line"/>
      <point x="193" y="-121" type="line" smooth="yes"/>
      <point x="250" y="-121"/>
      <point x="270" y="-140"/>
      <point x="270" y="-179" type="curve" smooth="yes"/>
      <point x="270" y="-223"/>
      <point x="251" y="-249"/>
      <point x="208" y="-249" type="curve" smooth="yes"/>
      <point x="151" y="-249"/>
      <point x="134" y="-208"/>
      <point x="124" y="-189" type="curve"/>
      <point x="91" y="-212" type="line"/>
      <point x="106" y="-247"/>
      <point x="138" y="-288"/>
    </contour>
  </outline>
</glyph>
<glyph name="circumflex" format="2">
  <advance width="410"/>
  <anchor x="202" y="529" name="_top"/>
  <outline>
    <contour>
      <point x="251" y="830" type="line"/>
      <point x="322" y="677" type="line"/>
      <point x="318" y="656" type="line"/>
      <point x="299" y="656" type="line"/>
      <point x="203" y="786" type="line"/>
      <point x="232" y="790" type="line"/>
      <point x="94" y="656" type="line"/>
      <point x="70" y="656" type="line"/>
      <point x="74" y="677" type="line"/>
      <point x="203" y="830" type="line"/>
    </contour>
  </outline>
</glyph>
<glyph name="circumflex.uc" format="2">
  <advance width="410"/>
  <anchor x="202" y="694" name="_top"/>
  <outline>
    <contour>
      <point x="253" y="956" type="line"/>
      <point x="332" y="803" type="line"/>
      <point x="327" y="782" type="line"/>
      <point x="306" y="782" type="line"/>
      <point x="201" y="912" type="line"/>
      <point x="242" y="913" type="line"/>
      <point x="88" y="782" type="line"/>
      <point x="62" y="782" type="line"/>
      <point x="67" y="803" type="line"/>
      <point x="200" y="956" type="line"/>
    </contour>
  </outline>
</glyph>
<glyph name="circumflex_acute" format="2">
  <advance width="415"/>
  <anchor x="173" y="558" name="_top"/>
  <outline>
    <contour>
      <point x="404" y="939" type="curve" smooth="yes"/>
      <point x="336" y="820" type="line"/>
      <point x="333" y="801" type="line"/>
      <point x="351" y="801" type="line"/>
      <point x="450" y="898" type="line" smooth="yes"/>
      <point x="477" y="925"/>
      <point x="489" y="934"/>
      <point x="489" y="958" type="curve" smooth="yes"/>
      <point x="489" y="974"/>
      <point x="476" y="991"/>
      <point x="456" y="991" type="curve" smooth="yes"/>
      <point x="433" y="991"/>
      <point x="423" y="972"/>
    </contour>
    <component base="circumflex"/>
  </outline>
</glyph>
<glyph name="circumflex_acute.uc" format="2">
  <advance width="417"/>
  <anchor x="183" y="749" name="_top"/>
  <outline>
    <contour>
      <point x="423" y="1028" type="curve" smooth="yes"/>
      <point x="346" y="939" type="line"/>
      <point x="341" y="917" type="line"/>
      <point x="362" y="917" type="line"/>
      <point x="465" y="986" type="line" smooth="yes"/>
      <point x="496" y="1006"/>
      <point x="515" y="1021"/>
      <point x="515" y="1046" type="curve" smooth="yes"/>
      <point x="515" y="1064"/>
      <point x="504" y="1080"/>
      <point x="483" y="1080" type="curve" smooth="yes"/>
      <point x="460" y="1080"/>
      <point x="446" y="1058"/>
    </contour>
    <component base="circumflex.uc"/>
  </outline>
</glyph>
<glyph name="circumflex_grave" format="2">
  <advance width="424"/>
  <anchor x="198" y="564" name="_top"/>
  <outline>
    <contour>
      <point x="373" y="922" type="curve" smooth="yes"/>
      <point x="407" y="820" type="line"/>
      <point x="402" y="801" type="line"/>
      <point x="384" y="801" type="line"/>
      <point x="317" y="897" type="line" smooth="yes"/>
      <point x="302" y="919"/>
      <point x="291" y="937"/>
      <point x="291" y="957" type="curve" smooth="yes"/>
      <point x="291" y="977"/>
      <point x="306" y="990"/>
      <point x="326" y="990" type="curve" smooth="yes"/>
      <point x="354" y="990"/>
      <point x="360" y="968"/>
    </contour>
    <component base="circumflex"/>
  </outline>
</glyph>
<glyph name="circumflex_hook" format="2">
  <advance width="415"/>
  <anchor x="182" y="559" name="_top"/>
  <outline>
    <contour>
      <point x="282" y="937" type="line"/>
      <point x="298" y="1006"/>
      <point x="343" y="1043"/>
      <point x="408" y="1043" type="curve" smooth="yes"/>
      <point x="482" y="1043"/>
      <point x="512" y="997"/>
      <point x="512" y="950" type="curve" smooth="yes"/>
      <point x="512" y="874"/>
      <point x="454" y="844"/>
      <point x="374" y="845" type="curve"/>
      <point x="406" y="872" type="line"/>
      <point x="389" y="787" type="line"/>
      <point x="347" y="787" type="line"/>
      <point x="365" y="878" type="line"/>
      <point x="425" y="880"/>
      <point x="463" y="888"/>
      <point x="463" y="951" type="curve" smooth="yes"/>
      <point x="463" y="984"/>
      <point x="447" y="1004"/>
      <point x="406" y="1004" type="curve" smooth="yes"/>
      <point x="363" y="1004"/>
      <point x="344" y="982"/>
      <point x="332" y="937" type="curve"/>
    </contour>
    <component base="circumflex"/>
  </outline>
</glyph>
<glyph name="circumflex_hook.uc" format="2">
  <advance width="416"/>
  <anchor x="181" y="694" name="_top"/>
  <outline>
    <contour>
      <point x="298" y="1045" type="line"/>
      <point x="314" y="1116"/>
      <point x="357" y="1149"/>
      <point x="423" y="1149" type="curve" smooth="yes"/>
      <point x="497" y="1149"/>
      <point x="525" y="1105"/>
      <point x="525" y="1056" type="curve" smooth="yes"/>
      <point x="525" y="987"/>
      <point x="470" y="956"/>
      <point x="392" y="954" type="curve"/>
      <point x="424" y="983" type="line"/>
      <point x="408" y="897" type="line"/>
      <point x="366" y="897" type="line"/>
      <point x="384" y="989" type="line"/>
      <point x="441" y="991"/>
      <point x="477" y="1000"/>
      <point x="477" y="1056" type="curve" smooth="yes"/>
      <point x="477" y="1092"/>
      <point x="461" y="1109"/>
      <point x="420" y="1109" type="curve" smooth="yes"/>
      <point x="377" y="1109"/>
      <point x="359" y="1090"/>
      <point x="348" y="1045" type="curve"/>
    </contour>
    <component base="circumflex.uc"/>
  </outline>
</glyph>
<glyph name="circumflex_tilde.uc" format="2">
  <advance width="410"/>
  <anchor x="194" y="694" name="_top"/>
  <outline>
    <contour>
      <point x="291" y="1001" type="curve" smooth="yes"/>
      <point x="330" y="1001"/>
      <point x="357" y="1036"/>
      <point x="386" y="1136" type="curve"/>
      <point x="352" y="1151" type="line"/>
      <point x="334" y="1094"/>
      <point x="319" y="1051"/>
      <point x="295" y="1051" type="curve" smooth="yes"/>
      <point x="259" y="1051"/>
      <point x="259" y="1146"/>
      <point x="193" y="1146" type="curve" smooth="yes"/>
      <point x="148" y="1146"/>
      <point x="125" y="1112"/>
      <point x="97" y="1014" type="curve"/>
      <point x="131" y="1000" type="line"/>
      <point x="150" y="1065"/>
      <point x="164" y="1095"/>
      <point x="187" y="1095" type="curve" smooth="yes"/>
      <point x="225" y="1095"/>
      <point x="223" y="1001"/>
    </contour>
    <contour>
      <point x="253" y="945" type="line"/>
      <point x="332" y="803" type="line"/>
      <point x="327" y="782" type="line"/>
      <point x="306" y="782" type="line"/>
      <point x="200" y="902" type="line"/>
      <point x="236" y="905" type="line"/>
      <point x="88" y="782" type="line"/>
      <point x="63" y="782" type="line"/>
      <point x="68" y="803" type="line"/>
      <point x="200" y="945" type="line"/>
    </contour>
  </outline>
</glyph>
<glyph name="f_f_l" format="2">
  <advance width="870"/>
  <outline>
    <contour>
      <point x="362" y="565" type="line"/>
      <point x="354" y="523" type="line"/>
      <point x="627" y="523" type="line"/>
      <point x="635" y="565" type="line"/>
    </contour>
    <contour>
      <point x="644" y="751" type="curve" smooth="yes"/>
      <point x="702" y="751"/>
      <point x="773" y="732"/>
      <point x="806" y="718" type="curve"/>
      <point x="816" y="752" type="line"/>
      <point x="785" y="766"/>
      <point x="719" y="790"/>
      <point x="648" y="790" type="curve" smooth="yes"/>
      <point x="543" y="790"/>
      <point x="493" y="746"/>
      <point x="477" y="658" type="curve" smooth="yes"/>
      <point x="318" y="-223" type="line"/>
      <point x="358" y="-223" type="line"/>
      <point x="525" y="652" type="line" smooth="yes"/>
      <point x="538" y="719"/>
      <point x="565" y="751"/>
    </contour>
    <contour>
      <point x="703" y="143" type="curve" smooth="yes"/>
      <point x="855" y="780" type="line"/>
      <point x="732" y="780" type="line"/>
      <point x="798" y="739" type="line"/>
      <point x="664" y="176" type="line" smooth="yes"/>
      <point x="651" y="121"/>
      <point x="641" y="83"/>
      <point x="641" y="55" type="curve" smooth="yes"/>
      <point x="641" y="19"/>
      <point x="668" y="0"/>
      <point x="709" y="0" type="curve" smooth="yes"/>
      <point x="729" y="0"/>
      <point x="747" y="0"/>
      <point x="766" y="0" type="curve"/>
      <point x="774" y="42" type="line"/>
      <point x="756" y="42"/>
      <point x="741" y="42"/>
      <point x="722" y="42" type="curve" smooth="yes"/>
      <point x="702" y="42"/>
      <point x="690" y="50"/>
      <point x="690" y="68" type="curve" smooth="yes"/>
      <point x="690" y="82"/>
      <point x="692" y="97"/>
    </contour>
    <contour>
      <point x="83" y="565" type="line"/>
      <point x="75" y="523" type="line"/>
      <point x="380" y="523" type="line"/>
      <point x="388" y="565" type="line"/>
    </contour>
    <contour>
      <point x="79" y="-223" type="line"/>
      <point x="243" y="637" type="line" smooth="yes"/>
      <point x="257" y="711"/>
      <point x="278" y="729"/>
      <point x="330" y="729" type="curve" smooth="yes"/>
      <point x="353" y="729"/>
      <point x="375" y="725"/>
      <point x="395" y="720" type="curve"/>
      <point x="405" y="766" type="line"/>
      <point x="388" y="771"/>
      <point x="362" y="775"/>
      <point x="339" y="775" type="curve" smooth="yes"/>
      <point x="254" y="775"/>
      <point x="212" y="739"/>
      <point x="195" y="643" type="curve" smooth="yes"/>
      <point x="39" y="-223" type="line"/>
    </contour>
  </outline>
</glyph>
<glyph name="hook" format="2">
  <advance width="410"/>
  <anchor x="184" y="517" name="_top"/>
  <outline>
    <contour>
      <point x="81" y="798" type="line"/>
      <point x="101" y="884"/>
      <point x="149" y="921"/>
      <point x="222" y="921" type="curve" smooth="yes"/>
      <point x="303" y="921"/>
      <point x="337" y="882"/>
      <point x="337" y="818" type="curve" smooth="yes"/>
      <point x="337" y="733"/>
      <point x="277" y="704"/>
      <point x="192" y="703" type="curve"/>
      <point x="229" y="727" type="line"/>
      <point x="212" y="646" type="line"/>
      <point x="162" y="646" type="line"/>
      <point x="181" y="739" type="line"/>
      <point x="246" y="742"/>
      <point x="286" y="746"/>
      <point x="286" y="818" type="curve" smooth="yes"/>
      <point x="286" y="861"/>
      <point x="269" y="882"/>
      <point x="221" y="882" type="curve" smooth="yes"/>
      <point x="178" y="882"/>
      <point x="150" y="860"/>
      <point x="134" y="798" type="curve"/>
    </contour>
  </outline>
</glyph>
<glyph name="hungarumlaut" format="2">
  <advance width="410"/>
  <anchor x="220" y="525" name="_top"/>
  <outline>
    <contour>
      <point x="91" y="808" type="curve" smooth="yes"/>
      <point x="43" y="680" type="line"/>
      <point x="39" y="661" type="line"/>
      <point x="59" y="661" type="line"/>
      <point x="132" y="763" type="line" smooth="yes"/>
      <point x="156" y="796"/>
      <point x="168" y="809"/>
      <point x="168" y="833" type="curve" smooth="yes"/>
      <point x="168" y="849"/>
      <point x="157" y="863"/>
      <point x="138" y="863" type="curve" smooth="yes"/>
      <point x="112" y="863"/>
      <point x="104" y="842"/>
    </contour>
    <contour>
      <point x="242" y="808" type="curve" smooth="yes"/>
      <point x="194" y="680" type="line"/>
      <point x="190" y="661" type="line"/>
      <point x="210" y="661" type="line"/>
      <point x="283" y="763" type="line" smooth="yes"/>
      <point x="306" y="796"/>
      <point x="319" y="809"/>
      <point x="319" y="833" type="curve" smooth="yes"/>
      <point x="319" y="849"/>
      <point x="308" y="863"/>
      <point x="288" y="863" type="curve" smooth="yes"/>
      <point x="263" y="863"/>
      <point x="254" y="842"/>
    </contour>
  </outline>
</glyph>
<glyph name="ring.uc" format="2">
  <advance width="410"/>
  <anchor x="205" y="731" name="_top"/>
  <outline>
    <contour>
      <point x="200" y="821" type="curve" smooth="yes"/>
      <point x="162" y="821"/>
      <point x="139" y="846"/>
      <point x="139" y="890" type="curve" smooth="yes"/>
      <point x="139" y="939"/>
      <point x="162" y="978"/>
      <point x="208" y="978" type="curve" smooth="yes"/>
      <point x="245" y="978"/>
      <point x="268" y="954"/>
      <point x="268" y="910" type="curve" smooth="yes"/>
      <point x="268" y="860"/>
      <point x="245" y="821"/>
    </contour>
    <contour>
      <point x="199" y="783" type="curve" smooth="yes"/>
      <point x="269" y="783"/>
      <point x="315" y="835"/>
      <point x="315" y="911" type="curve" smooth="yes"/>
      <point x="315" y="971"/>
      <point x="277" y="1016"/>
      <point x="208" y="1016" type="curve" smooth="yes"/>
      <point x="138" y="1016"/>
      <point x="93" y="965"/>
      <point x="93" y="889" type="curve" smooth="yes"/>
      <point x="93" y="830"/>
      <point x="129" y="783"/>
    </contour>
  </outline>
</glyph>
<glyph name="ringhalfleft" format="2">
  <advance width="410"/>
  <anchor x="218" y="566" name="_top"/>
  <outline>
    <contour>
      <point x="193" y="643" type="curve"/>
      <point x="193" y="679" type="line"/>
      <point x="158" y="679"/>
      <point x="136" y="701"/>
      <point x="136" y="743" type="curve" smooth="yes"/>
      <point x="136" y="790"/>
      <point x="157" y="826"/>
      <point x="201" y="826" type="curve"/>
      <point x="201" y="862" type="line"/>
      <point x="133" y="862"/>
      <point x="90" y="813"/>
      <point x="90" y="742" type="curve" smooth="yes"/>
      <point x="90" y="686"/>
      <point x="126" y="643"/>
    </contour>
  </outline>
</glyph>
<glyph name="ringhalfright" format="2">
  <advance width="410"/>
  <anchor x="195" y="566" name="_top"/>
  <outline>
    <contour>
      <point x="193" y="643" type="line"/>
      <point x="261" y="643"/>
      <point x="304" y="692"/>
      <point x="304" y="763" type="curve" smooth="yes"/>
      <point x="304" y="819"/>
      <point x="268" y="862"/>
      <point x="201" y="862" type="curve"/>
      <point x="201" y="826" type="line"/>
      <point x="236" y="826"/>
      <point x="258" y="804"/>
      <point x="258" y="762" type="curve" smooth="yes"/>
      <point x="258" y="715"/>
      <point x="237" y="679"/>
      <point x="193" y="679" type="curve"/>
    </contour>
  </outline>
</glyph>
